HIERARCHY
	ROOT Hips
	{
		OFFSET 0 0 0 
		CHANNELS 6 Xposition Yposition Zposition Zrotation Xrotation Yrotation
		JOINT LHipJoint
		{
			OFFSET 0 0 0 
			CHANNELS 3 Zrotation Xrotation Yrotation
			JOINT LeftUpLeg
			{
				OFFSET 0.0783705 -0.0912565 0.0336595 
				CHANNELS 3 Zrotation Xrotation Yrotation
				JOINT LeftLeg
				{
					OFFSET 0.117854 -0.323802 0 
					CHANNELS 3 Zrotation Xrotation Yrotation
					JOINT LeftFoot
					{
						OFFSET 0.135318 -0.371784 0 
						CHANNELS 3 Zrotation Xrotation Yrotation
						JOINT LeftToeBase
						{
							OFFSET 0.0102135 -0.028061 0.104268 
							CHANNELS 3 Zrotation Xrotation Yrotation
							End Site
							{
								OFFSET 0 -0 0.0542675
							}
						}
					}
				}
			}
		}
		JOINT RHipJoint
		{
			OFFSET 0 0 0 
			CHANNELS 3 Zrotation Xrotation Yrotation
			JOINT RightUpLeg
			{
				OFFSET -0.075711 -0.0912565 0.0336595 
				CHANNELS 3 Zrotation Xrotation Yrotation
				JOINT RightLeg
				{
					OFFSET -0.124412 -0.341819 0 
					CHANNELS 3 Zrotation Xrotation Yrotation
					JOINT RightFoot
					{
						OFFSET -0.135017 -0.370955 0 
						CHANNELS 3 Zrotation Xrotation Yrotation
						JOINT RightToeBase
						{
							OFFSET -0.009875 -0.0271315 0.111076 
							CHANNELS 3 Zrotation Xrotation Yrotation
							End Site
							{
								OFFSET -0 -0 0.0574575
							}
						}
					}
				}
			}
		}
		JOINT LowerBack
		{
			OFFSET 0 0 0 
			CHANNELS 3 Zrotation Xrotation Yrotation
			JOINT Spine
			{
				OFFSET -0.0007835 0.106437 -0.007921 
				CHANNELS 3 Zrotation Xrotation Yrotation
				JOINT Spine1
				{
					OFFSET 0.003049 0.106663 -0.0005215 
					CHANNELS 3 Zrotation Xrotation Yrotation
					JOINT Neck
					{
						OFFSET 0 0 0 
						CHANNELS 3 Zrotation Xrotation Yrotation
						JOINT Neck1
						{
							OFFSET -0.00252 0.089216 0.0066935 
							CHANNELS 3 Zrotation Xrotation Yrotation
							JOINT Head
							{
								OFFSET -9e-005 0.08844 -0.0166515 
								CHANNELS 3 Zrotation Xrotation Yrotation
								End Site
								{
									OFFSET 0.000367 0.0906245 -0.0063595
								}
							}
						}
					}
					JOINT LeftShoulder
					{
						OFFSET 0 0 0 
						CHANNELS 3 Zrotation Xrotation Yrotation
						JOINT LeftArm
						{
							OFFSET 0.1861 0.047094 -0.0271585 
							CHANNELS 3 Zrotation Xrotation Yrotation
							JOINT LeftForeArm
							{
								OFFSET 0.257301 -0 0 
								CHANNELS 3 Zrotation Xrotation Yrotation
								JOINT LeftHand
								{
									OFFSET 0.182226 -0 -0 
									CHANNELS 3 Zrotation Xrotation Yrotation
									JOINT LeftFingerBase
									{
										OFFSET 0 0 0 
										CHANNELS 3 Zrotation Xrotation Yrotation
										JOINT LFingers
										{
											OFFSET 0.028114 -0 0 
											CHANNELS 3 Zrotation Xrotation Yrotation
											End Site
											{
												OFFSET 0.022666 -0 0
											}
										}
									}
									JOINT LThumb
									{
										OFFSET 0 0 0 
										CHANNELS 3 Zrotation Xrotation Yrotation
										End Site
										{
											OFFSET 0.0230125 -0 0.0230125
										}
									}
								}
							}
						}
					}
					JOINT RightShoulder
					{
						OFFSET 0 0 0 
						CHANNELS 3 Zrotation Xrotation Yrotation
						JOINT RightArm
						{
							OFFSET -0.165127 0.0613395 -0.0234705 
							CHANNELS 3 Zrotation Xrotation Yrotation
							JOINT RightForeArm
							{
								OFFSET -0.266957 -0 0 
								CHANNELS 3 Zrotation Xrotation Yrotation
								JOINT RightHand
								{
									OFFSET -0.178239 -0 -0 
									CHANNELS 3 Zrotation Xrotation Yrotation
									JOINT RightFingerBase
									{
										OFFSET 0 0 0 
										CHANNELS 3 Zrotation Xrotation Yrotation
										JOINT RFingers
										{
											OFFSET -0.0428735 -0 0 
											CHANNELS 3 Zrotation Xrotation Yrotation
											End Site
											{
												OFFSET -0.034566 -0 0
											}
										}
									}
									JOINT RThumb
									{
										OFFSET 0 0 0 
										CHANNELS 3 Zrotation Xrotation Yrotation
										End Site
										{
											OFFSET -0.0350935 -0 0.0350935
										}
									}
								}
							}
						}
					}
				}
			}
		}
	}
MOTION
Frames:	15
Frame Time:	0.0166667
-0.54397 0.87642 -0.29552 -1.10422 4.32437 -9.35226 -0 0 -0 -20.2374 -26.0437 -12.0032 -1.08737 18.083 6.82541 -0.287694 4.53087 4.23044 -0.626108 -13.8546 -5.15023 -0 0 -0 23.3434 -1.03067 0.450673 4.37063 34.0177 -14.2211 1.07336 -14.3394 6.93094 0.116688 -6.04564 2.20919 -1.03568 8.46652 1.31048 2.19088 2.54158 1.70488 2.67442 -2.20686 0.844526 -3.91705 -15.417 0.333086 1.27752 21.8951 1.14166 1.33366 9.42303 0.350834 -0 0 -0 -92.6138 0.552164 2.27661 10.0023 -1.54404 -17.5079 -0 10.3695 -0 13.2727 8.67491 32.595 -7.125 0 0 -9.86396 -3.2483 63.0496 -0 0 -0 89.3167 -3.9237 -1.29634 -15.7655 -3.96494 28.0733 -0 14.0233 -0 10.121 1.77423 9.83956 7.125 0 -0 31.9655 16.0571 -21.0953 
-0.542575 0.878925 -0.284755 -1.22054 4.58883 -9.2179 -0 0 -0 -20.3176 -25.5043 -12.1892 -1.10843 18.2491 6.89284 -0.261129 3.9834 4.18202 -0.518885 -12.6405 -4.68213 -0 0 -0 23.2919 -0.0616977 0.4979 4.12088 33.1833 -13.7699 0.982317 -13.0685 6.6928 0.185479 -7.61169 2.78799 -1.04522 7.96001 1.35173 2.01753 2.32451 1.75905 2.50106 -2.14855 0.873814 -3.69498 -14.8342 0.413688 1.20157 21.6188 1.19013 1.2716 9.21789 0.385782 -0 0 -0 -92.4123 1.13484 2.90887 10.2988 -1.63902 -18.0386 -0 9.55 -0 13.4283 8.88446 32.8973 -7.125 0 0 -9.62163 -3.23442 63.4084 -0 0 -0 89.7276 -3.70946 -1.90429 -15.8105 -3.989 28.1585 -0 13.735 -0 10.0594 1.71594 9.58114 7.125 0 -0 31.9699 15.8817 -21.3251 
-0.54106 0.881715 -0.273765 -1.3949 4.83912 -9.43795 -0 0 -0 -20.1671 -24.8857 -11.9841 -1.08656 18.0762 6.82272 -0.240957 3.71692 4.07258 -0.3523 -10.4525 -3.85008 -0 0 -0 23.2628 0.913874 0.949821 3.92052 32.4865 -13.4004 0.906366 -11.3032 6.60466 0.132517 -6.441 2.35487 -1.02103 7.51319 1.54628 1.85648 2.5936 2.01276 2.31797 -1.62935 0.994002 -3.70677 -16.0597 0.20833 1.22386 21.6619 0.956344 1.2414 9.46829 0.280826 -0 0 -0 -92.0778 0.698269 1.76293 10.1821 -1.60126 -17.8295 -0 9.536 -0 13.5844 8.58476 31.706 -7.125 0 0 -9.71486 -3.03895 62.2061 -0 0 -0 89.9669 -2.92153 -1.81927 -15.9996 -4.09065 28.5161 -0 13.5678 -0 10.6149 1.80663 9.54899 7.125 0 -0 32.4506 16.1558 -21.366 
-0.53986 0.88526 -0.2625 -1.58931 5.10052 -9.49615 -0 0 -0 -19.955 -23.992 -11.7346 -1.02414 17.5723 6.61895 -0.212017 3.11488 4.03317 -0.265324 -9.08841 -3.33785 -0 0 -0 23.2638 1.49025 1.23772 3.79252 32.028 -13.1606 0.794292 -9.33372 6.44316 0.174855 -7.39074 2.7061 -1.11884 7.23129 1.74357 1.74391 2.32577 2.27047 2.23439 -1.75986 1.12633 -3.9063 -15.8601 0.0435583 1.60729 21.7779 0.681114 1.34974 9.47685 0.178334 -0 0 -0 -91.7116 1.85465 2.1002 10.3713 -1.66271 -18.1686 -0 8.4886 -0 13.8077 8.35867 30.6039 -7.125 0 0 -9.7041 -2.83192 61.1148 -0 0 -0 90.1936 -2.65498 -2.49958 -16.0802 -4.13454 28.6691 -0 15.0254 -0 11.1354 1.8036 9.08484 7.125 0 -0 32.9967 16.1671 -21.7897 
-0.538355 0.888655 -0.25155 -1.7767 5.80558 -9.79734 -0 0 -0 -19.6263 -23.8342 -11.0309 -0.979418 17.2004 6.46929 -0.142569 2.53324 3.32145 -0.231799 -8.50048 -3.11839 -0 0 -0 23.1798 1.33013 1.81929 3.75722 31.8996 -13.0939 0.673306 -6.60954 6.61969 0.0847633 -5.15703 1.88242 -1.06251 6.49177 1.89747 1.63716 1.94407 2.48473 2.08768 -1.74519 1.23717 -3.9471 -15.9531 0.0254814 1.83547 22.0877 0.616227 1.42543 9.60346 0.167041 -0 0 -0 -91.4218 2.46972 2.46399 10.716 -1.77791 -18.7875 -0 7.3747 -0 13.6106 8.38 31.0444 -7.125 0 0 -9.82826 -2.94577 61.5228 -0 0 -0 90.2532 -1.71309 -2.9088 -15.9877 -4.08421 28.4937 -0 14.5782 -0 10.9286 1.59813 8.21862 7.125 0 -0 33.0083 15.5662 -22.5547 
-0.537185 0.89123 -0.240845 -2.22159 6.26524 -9.80171 -0 0 -0 -19.0669 -23.4005 -10.67 -0.960889 17.0431 6.40623 -0.0964218 1.68714 3.02761 -0.189242 -7.68692 -2.81582 -0 0 -0 23.3834 1.21101 2.07186 3.80765 32.0826 -13.189 0.446959 -3.59239 6.54622 0.0028033 -0.939183 0.341846 -0.972175 6.01733 1.89454 1.72357 1.55692 2.49492 2.12822 -1.88036 1.24687 -3.99309 -15.4877 0.143096 1.78648 22.0363 0.783328 1.44817 9.49272 0.234207 -0 0 -0 -91.2535 2.01358 2.56508 10.9152 -1.84628 -19.1459 -0 6.4539 -0 12.8675 8.08418 31.6173 -7.125 0 0 -10.5281 -3.24158 61.923 -0 0 -0 90.3313 -0.52174 -3.81646 -16.1289 -4.16112 28.7613 -0 14.4684 -0 10.3614 1.60025 8.68391 7.125 0 -0 32.4227 15.5389 -22.1319 
-0.535895 0.89379 -0.230205 -2.63352 6.38485 -9.87194 -0 0 -0 -18.5286 -22.6287 -10.0804 -0.935088 16.8221 6.31778 -0.0426725 0.749035 2.41371 -0.289722 -9.491 -3.48851 -0 0 -0 23.4511 1.15108 2.28796 3.95115 32.5948 -13.4574 0.228528 -1.04524 6.64311 0.0130677 2.02923 -0.738963 -0.847808 5.90072 1.91756 1.71715 1.58145 2.53297 2.05483 -1.78627 1.26461 -4.06213 -16.3104 0.198593 1.70538 22.29 0.935403 1.47202 9.73178 0.289161 -0 0 -0 -91.0002 2.07758 2.19064 11.138 -1.9245 -19.5474 -0 5.8603 -0 12.5981 7.93299 31.6971 -7.125 0 0 -10.8098 -3.33275 61.9339 -0 0 -0 90.4451 0.134073 -4.00031 -16.267 -4.23718 29.0239 -0 14.8718 -0 9.90512 1.67808 9.52012 7.125 0 -0 31.8514 15.7674 -21.3763 
-0.53459 0.89594 -0.220005 -2.95396 6.86937 -10.0702 -0 0 -0 -18.0589 -22.2003 -9.69898 -0.901337 16.5269 6.19999 -0.0194323 0.184566 2.18201 -0.337847 -10.2394 -3.76972 -0 0 -0 23.4423 0.299299 2.57003 4.28824 33.7463 -14.0734 -0.0253412 1.43738 6.88108 0.0447618 3.74874 -1.36652 -0.725216 5.36301 1.95094 1.64455 1.0709 2.59035 1.90733 -2.00509 1.2982 -3.82893 -15.1709 0.351034 1.70938 22.0344 1.03576 1.443 9.42502 0.354789 -0 0 -0 -90.617 2.90595 3.06404 11.6284 -2.10275 -20.4335 -0 4.6654 -0 12.6684 8.17219 32.3089 -7.125 0 0 -10.6005 -3.40092 62.587 -0 0 -0 90.7227 0.313802 -4.56397 -16.2597 -4.23303 29.0097 -0 15.2683 -0 9.91734 1.66143 9.41529 7.125 0 -0 31.8847 15.716 -21.4704 
-0.53365 0.89742 -0.21115 -3.18208 6.9916 -9.77237 -0 0 -0 -17.8399 -21.6191 -9.27038 -0.872179 16.2673 6.09675 -0.00501261 -0.0199941 1.3964 -0.39317 -11.033 -4.06954 -0 0 -0 23.3938 -0.69612 2.33777 4.8717 35.5908 -15.0991 -0.119923 2.2554 7.13936 0.077982 4.94775 -1.80563 -0.889721 5.61662 1.83873 1.6399 1.13568 2.43018 1.99937 -2.08083 1.2191 -4.12639 -16.6271 0.319458 1.93495 22.4083 1.07898 1.59492 9.82549 0.375508 -0 0 -0 -90.2788 3.23435 2.36567 11.9667 -2.23082 -21.0467 -0 4.1706 -0 12.3262 8.01018 32.5262 -7.125 0 0 -10.9347 -3.53899 62.719 -0 0 -0 90.7458 0.875119 -4.13248 -16.4226 -4.32371 29.3199 -0 14.8296 -0 9.60457 1.51165 8.86071 7.125 0 -0 31.7362 15.2511 -21.9593 
-0.532675 0.898715 -0.201995 -3.19452 7.04129 -9.96773 -0 0 -0 -17.738 -20.9564 -8.62333 -0.843915 16.0108 5.99495 0.0140402 -0.956767 0.954533 -0.360365 -10.5695 -3.89417 -0 0 -0 23.0763 -1.92099 2.41996 5.73 38.017 -16.5312 -0.133738 2.36493 7.08467 0.142401 6.67449 -2.44115 -1.33504 5.32964 1.74615 1.5824 1.05866 2.28259 2.20818 -2.0092 1.14861 -3.92808 -16.1323 0.61835 1.71783 21.9026 1.47111 1.55485 9.54236 0.553458 -0 0 -0 -89.987 3.22234 2.45568 12.3275 -2.37187 -21.7028 -0 3.6721 -0 12.29 7.90613 32.2679 -7.125 0 0 -11.0307 -3.5113 62.4419 -0 0 -0 90.6901 1.70647 -4.12323 -16.567 -4.405 29.5952 -0 14.3193 -0 9.66452 1.57753 9.18261 7.125 0 -0 31.7187 15.4577 -21.6728 
-0.53228 0.899845 -0.194865 -3.24817 7.25335 -9.74998 -0 0 -0 -17.6446 -20.5943 -8.23721 -0.821687 15.8062 5.91397 0.010046 -1.36999 0.231966 -0.346353 -10.3658 -3.81739 -0 0 -0 22.9928 -3.48634 2.40355 6.7876 40.6335 -18.1997 -0.0694773 1.82889 6.99558 0.200029 7.90103 -2.89531 -1.77633 5.40608 1.57189 1.57431 0.680674 2.02734 2.45175 -2.4439 1.03284 -3.65956 -15.3687 0.901126 1.37583 21.5701 1.8414 1.45465 9.2765 0.71181 -0 0 -0 -89.6719 4.01608 3.00599 12.9265 -2.61664 -22.7965 -0 2.6483 -0 12.3568 7.99728 32.4184 -7.125 0 0 -10.9239 -3.51344 62.6158 -0 0 -0 90.6781 2.28524 -4.37008 -16.631 -4.44134 29.7176 -0 14.0162 -0 8.93752 1.60859 10.1203 7.125 0 -0 30.8933 15.5888 -20.8134 
-0.531325 0.900465 -0.18666 -3.22053 6.8966 -9.6249 -0 0 -0 -17.7901 -19.3231 -8.025 -0.775586 15.3716 5.74258 0.0112158 -1.9564 0.0151088 -0.335944 -10.2113 -3.75913 -0 0 -0 22.6304 -4.60629 2.20834 7.96887 43.175 -19.9679 0.131544 0.334269 7.81123 0.165319 7.188 -2.63089 -2.08851 5.71046 1.45904 1.40718 0.744112 1.84896 2.462 -2.54335 0.946332 -3.65294 -15.2755 0.999516 1.33941 21.2949 1.97907 1.46142 9.15937 0.776299 -0 0 -0 -89.1045 4.83339 2.8377 13.1979 -2.73196 -23.2941 -0 2.6807 -0 12.9372 8.19155 31.8097 -7.125 0 0 -10.4097 -3.24818 62.1413 -0 0 -0 90.7261 2.4457 -4.07842 -16.6794 -4.46899 29.8102 -0 13.9615 -0 8.30279 1.56599 10.6065 7.125 0 -0 30.2443 15.5143 -20.3563 
-0.53062 0.90175 -0.178475 -2.89164 6.96447 -9.69199 -0 0 -0 -18.1329 -18.6845 -7.58819 -0.730536 14.9322 5.57016 0.00444551 -2.23987 -0.272608 -0.267201 -9.11986 -3.34959 -0 0 -0 22.0713 -6.27173 2.42462 9.33063 45.7159 -21.912 0.296454 -0.615222 8.71031 0.165682 7.19627 -2.63396 -2.63906 5.42285 1.37275 1.19316 0.873415 1.7014 2.57343 -2.25054 0.871572 -3.57152 -15.7389 1.12529 1.26647 21.3078 2.16828 1.46559 9.24477 0.862706 -0 0 -0 -88.4781 5.48889 2.2241 13.501 -2.86416 -23.8516 -0 2.636 -0 13.6446 7.98335 29.7754 -7.125 0 0 -10.053 -2.76282 60.2106 -0 0 -0 90.6296 2.70509 -3.27305 -16.643 -4.44825 29.7406 -0 13.9113 -0 7.37853 1.44165 10.9949 7.125 0 -0 29.3686 15.2316 -19.9745 
-0.529875 0.90212 -0.171235 -3.21424 6.74117 -9.40732 -0 0 -0 -17.9384 -17.7438 -7.67936 -0.723023 14.8575 5.5409 0.00814324 -2.74256 -0.300044 -0.257316 -8.9503 -3.28626 -0 0 -0 22.2231 -7.68614 2.45164 10.8146 48.1129 -23.9435 0.461955 -1.46988 9.45104 0.118738 6.09792 -2.22842 -2.60959 5.80891 1.16267 1.25225 1.17514 1.416 2.63869 -2.13833 0.723404 -3.79731 -16.8975 1.23524 1.11666 21.505 2.46564 1.53188 9.51838 0.963364 -0 0 -0 -87.9609 5.87466 1.08239 13.7734 -2.98586 -24.3539 -0 2.5748 -0 13.4353 8.01053 30.2573 -7.125 0 0 -10.1849 -2.88661 60.6586 -0 0 -0 90.2569 3.34532 -2.11911 -16.5753 -4.40978 29.6113 -0 13.7839 -0 7.17238 1.11862 8.81799 7.125 0 -0 29.6476 14.0225 -21.9402 
-0.52916 0.902565 -0.16357 -3.31457 6.53697 -8.94281 -0 0 -0 -18.0618 -17.0928 -7.50184 -0.741848 15.0441 5.614 -0.0167667 -3.23692 -0.881306 -0.297618 -9.6178 -3.53606 -0 0 -0 22.0348 -9.21385 2.14448 12.3345 50.2488 -25.9514 0.584928 -2.07755 9.91128 0.112634 5.94037 -2.17046 -2.6881 5.93795 0.975233 1.17337 1.19006 1.15675 2.61991 -2.17828 0.59483 -3.67632 -17.0169 1.27325 1.01196 21.9672 2.52093 1.50051 9.70471 0.978098 -0 0 -0 -87.3242 6.86885 0.660138 14.1586 -3.16282 -25.0665 -0 2.1549 -0 13.2882 8.14984 30.9742 -7.125 0 0 -10.1987 -3.02847 61.3657 -0 0 -0 90.2804 2.67248 -1.58382 -16.4113 -4.31737 29.2984 -0 14.6195 -0 5.87709 1.04465 10.0438 7.125 0 -0 28.2773 13.997 -20.79 
